<svg width="80" height="80" viewBox="0 0 80 80" fill="none" xmlns="http://www.w3.org/2000/svg">
<path d="M42.5 57.5C42.5 58.163 42.2366 58.7989 41.7678 59.2677C41.2989 59.7366 40.663 60 40 60C39.3369 60 38.7011 59.7366 38.2322 59.2677C37.7634 58.7989 37.5 58.163 37.5 57.5V38.535L31.77 44.27C31.3006 44.7394 30.6639 45.0031 30 45.0031C29.3361 45.0031 28.6994 44.7394 28.23 44.27C27.7606 43.8005 27.4968 43.1638 27.4968 42.5C27.4968 41.8361 27.7606 41.1994 28.23 40.73L38.23 30.73C38.4622 30.4971 38.7381 30.3124 39.0418 30.1864C39.3455 30.0604 39.6712 29.9955 40 29.9955C40.3288 29.9955 40.6544 30.0604 40.9582 30.1864C41.2619 30.3124 41.5378 30.4971 41.77 30.73L51.77 40.73C52.2394 41.1994 52.5031 41.8361 52.5031 42.5C52.5031 43.1638 52.2394 43.8005 51.77 44.27C51.3006 44.7394 50.6639 45.0031 50 45.0031C49.3361 45.0031 48.6994 44.7394 48.23 44.27L42.5 38.535V57.5Z" fill="#A9A9A9"/>
<path d="M70 70V22.5L47.5 0H20C17.3478 0 14.8043 1.05357 12.9289 2.92893C11.0536 4.8043 10 7.34784 10 10V70C10 72.6522 11.0536 75.1957 12.9289 77.0711C14.8043 78.9464 17.3478 80 20 80H60C62.6522 80 65.1957 78.9464 67.0711 77.0711C68.9464 75.1957 70 72.6522 70 70ZM47.5 15C47.5 16.9891 48.2902 18.8968 49.6967 20.3033C51.1032 21.7098 53.0109 22.5 55 22.5H65V70C65 71.3261 64.4732 72.5979 63.5355 73.5355C62.5979 74.4732 61.3261 75 60 75H20C18.6739 75 17.4021 74.4732 16.4645 73.5355C15.5268 72.5979 15 71.3261 15 70V10C15 8.67392 15.5268 7.40215 16.4645 6.46447C17.4021 5.52678 18.6739 5 20 5H47.5V15Z" fill="#A9A9A9"/>
</svg>
